<?xml version="1.0" encoding="iso-8859-1"?>
<!-- Generator: Adobe Illustrator 19.0.0, SVG Export Plug-In . SVG Version: 6.00 Build 0)  -->
<svg version="1.1" id="Layer_1" xmlns="http://www.w3.org/2000/svg" xmlns:xlink="http://www.w3.org/1999/xlink" x="0px" y="0px"
	 viewBox="0 0 480.001 480.001" style="enable-background:new 0 0 480.001 480.001;" xml:space="preserve">
<g>
	<g>
		<g>
			<path d="M393.625,214.506c-23.873-19.417-48.225-34.913-72.378-46.058c-30.566-14.103-60.92-21.254-90.217-21.254
				c-29.307,0-59.667,7.151-90.235,21.254c-24.156,11.145-48.507,26.641-72.377,46.058c-40.457,32.91-65.339,65.407-66.379,66.775
				c-2.796,3.678-2.708,8.793,0.212,12.374c1.041,1.275,25.954,31.593,66.437,62.277c54.083,40.992,110.22,62.66,162.342,62.66
				c52.104,0,108.234-21.668,162.325-62.66c40.487-30.683,65.411-61,66.452-62.276c2.923-3.581,3.011-8.698,0.213-12.377
				C458.98,279.912,434.087,247.416,393.625,214.506z M231.03,398.592c-60.135,0-114.698-31.71-149.881-58.311
				c-28.234-21.348-48.896-42.945-58.095-53.173c21.372-25.504,107.31-119.913,207.976-119.913
				c59.963,0,114.46,34.008,149.617,62.537c28.475,23.106,49.259,46.487,58.356,57.365
				C417.267,311.202,331.509,398.592,231.03,398.592z"/>
			<path d="M230.746,176.813c-58.291,0-105.714,47.416-105.714,105.699S172.455,388.21,230.746,388.21
				c58.282,0,105.698-47.416,105.698-105.699S289.028,176.813,230.746,176.813z M230.746,368.21
				c-47.263,0-85.714-38.444-85.714-85.699s38.451-85.699,85.714-85.699c47.254,0,85.698,38.444,85.698,85.699
				S278,368.21,230.746,368.21z"/>
			<path d="M226.179,249.721c-16.396,0-29.735,13.346-29.735,29.751c0,16.404,13.339,29.751,29.735,29.751
				c16.404,0,29.751-13.346,29.751-29.751C255.93,263.067,242.583,249.721,226.179,249.721z M226.179,289.222
				c-5.368,0-9.735-4.374-9.735-9.751c0-5.376,4.367-9.751,9.735-9.751c5.376,0,9.751,4.374,9.751,9.751
				S231.555,289.222,226.179,289.222z"/>
			<path d="M470.002,121.574c-0.033,0-0.066,0-0.1,0.001l-50.77,0.494l-0.513-50.761c-0.055-5.488-4.521-9.899-9.997-9.899
				c-0.034,0-0.068,0-0.103,0c-5.522,0.056-9.954,4.578-9.897,10.101l0.513,50.754l-50.762,0.494
				c-5.522,0.054-9.956,4.574-9.902,10.097c0.054,5.49,4.52,9.903,9.998,9.903c0.033,0,0.066,0,0.1-0.001l50.77-0.494l0.513,50.761
				c0.055,5.488,4.522,9.899,9.997,9.899c0.034,0,0.068,0,0.104-0.001c5.522-0.056,9.954-4.578,9.897-10.101l-0.513-50.753
				l50.762-0.494c5.522-0.054,9.956-4.574,9.902-10.097C479.946,125.987,475.479,121.574,470.002,121.574z"/>
		</g>
	</g>
</g>
<g>
</g>
<g>
</g>
<g>
</g>
<g>
</g>
<g>
</g>
<g>
</g>
<g>
</g>
<g>
</g>
<g>
</g>
<g>
</g>
<g>
</g>
<g>
</g>
<g>
</g>
<g>
</g>
<g>
</g>
</svg>
